.
 
http://www.scenetime.com    -  Hottest private tracker on the net. !!!

Sign up will close shortly !!  Join now 

        Seed back for speed


...................................NFO:................................................. 888888ba   88888888b dP     dP  88888888b dP         .d888888  d888888P oo  .88888.  888888ba  
 88    `8b  88        88     88  88        88        d8'    88     88       d8'   `8b 88    `8b 
a88aaaa8P' a88aaaa    88    .8P a88aaaa    88        88aaaaa88a    88    dP 88     88 88     88 
 88   `8b.  88        88    d8'  88        88        88     88     88    88 88     88 88     88 
 88     88  88        88  .d8P   88        88        88     88     88    88 Y8.   .8P 88     88 
 dP     dP  88888888P 888888'    88888888P 88888888P 88     88     dP    dP  `8888P'  dP     dP 
                                                                                                
************************************BRINGS TO YOU*********************************************


                    Shark Night 2011 TS READNFO XViD - REVELATiON

[IMG]http://i.imgur.com/0XIe6.jpg[/IMG]


IMDb URL..........:http://www.imdb.com/title/tt1633356/
IMDB Rating.......:6.4/10                                                                 
Runtime...........:1h 17mn
Subtitles.........:NIL
Language..........:ENGLISH
Resolution........:720 x 272                                      

[color=RED]VIDEO:[/color]
Chelyusti.2011.D.TS  Thanks

[color=RED]AUDIO:[/color]
OWN

[color=yellow]VIDEO:[/color]
ID                               : 0
Format                           : MPEG-4 Visual
Format profile                   : Advanced Simple@L5
Format settings, BVOP            : 2
Format settings, QPel            : No
Format settings, GMC             : No warppoints
Format settings, Matrix          : Default (MPEG)
Muxing mode                      : Packed bitstream
Codec ID                         : XVID
Codec ID/Hint                    : XviD
Duration                         : 1h 17mn
Bit rate                         : 2 409 Kbps
Width                            : 720 pixels
Height                           : 272 pixels
Display aspect ratio             : 2.647
Frame rate                       : 25.000 fps
Color space                      : YUV
Chroma subsampling               : 4:2:0
Bit depth                        : 8 bits
Scan type                        : Progressive
Compression mode                 : Lossy
Bits/(Pixel*Frame)               : 0.492
Stream size                      : 1.31 GiB (95%)
Writing library                  : XviD 64

[color=yellow]AUDIO:[/color]
ID                               : 1
Format                           : MPEG Audio
Format version                   : Version 1
Format profile                   : Layer 3
Mode                             : Joint stereo
Mode extension                   : MS Stereo
Codec ID                         : 55
Codec ID/Hint                    : MP3
Duration                         : 1h 17mn
Bit rate mode                    : Constant
Bit rate                         : 128 Kbps
Channel(s)                       : 2 channels
Sampling rate                    : 44.1 KHz
Compression mode                 : Lossy
Stream size                      : 71.3 MiB (5%)
Alignment                        : Split accross interleaves
Interleave, duration             : 40 ms (1.00 video frame)


[IMG]http://i.imgur.com/JUX0O.jpg[/IMG]
[IMG]http://i.imgur.com/JYbBr.jpg[/IMG]
[IMG]http://i.imgur.com/ApWZb.jpg[/IMG]
[IMG]http://i.imgur.com/etKGQ.jpg[/IMG]



[color=RED]WORK DONE:[/color]
Sharpened and tweaked the colors 
Video is missing 2 minutes 
at 10 minutes 40 seconds in
also is cropped at top and bottom
Audio is pretty good LiNE
filtered muxed and synced 

[color=RED]GREEST 2 U ALL[/color]